:FULLY-SPECIFIED
:FORCE-ALL-JOINTS-BE-3DOF
:DEGREES
238
root 5.56165 15.6332 -25.8232 9.66112 23.84 -7.88516
lfemur -42.2387 35.2052 -6.86341
ltibia 53.8477 0 0
lfoot -14.3804 8.9321 0
ltoes -4.42131 0 0
rfemur -16.3491 -11.7442 5.18428
rtibia 33.1086 0 0
rfoot -39.5512 -9.08422 0
rtoes 56.632 0 0
lowerback 1.09186 -2.38062 3.12521
upperback -1.31556 -3.03449 3.71049
thorax -1.92424 -1.52753 2.14845
lowerneck -10.3762 -1.92183 -0.009652
upperneck 1.46303 -2.54115 -0.303951
head 2.24632 -1.27369 -0.222685
lclavicle 5.78393e-14 1.81462e-14 0
lhumerus -55.2069 -32.8888 122.288
lradius 62.9178 0 0
lwrist 19.5402 0 0
lhand 5.78073 13.4283 0
lfingers 7.12502 0 0
lthumb 31.109 40.7613 0
rclavicle 5.78393e-14 1.81462e-14 0
rhumerus -34.684 -23.5263 -69.0406
rradius 100.006 0 0
rwrist -57.3038 0 0
rhand -9.51226 -21.8883 0
rfingers 7.12502 0 0
rthumb 16.0125 -767.672 0
239
root 5.65072 15.6591 -25.8088 9.48089 25.5105 -8.1511
lfemur -43.2429 35.3468 -8.07462
ltibia 53.9091 0 0
lfoot -14.513 9.37744 0
ltoes -2.10601 0 0
rfemur -14.8992 -10.2826 5.15916
rtibia 32.1184 0 0
rfoot -40.7955 -11.5138 0
rtoes 56.3217 0 0
lowerback 1.02484 -2.4563 3.27099
upperback -1.44752 -3.12374 4.03554
thorax -2.013 -1.57213 2.40466
lowerneck -10.1156 -2.13247 -0.153872
upperneck 1.56112 -2.79665 -0.415299
head 2.23092 -1.40564 -0.245059
lclavicle 6.46299e-14 2.39536e-14 0
lhumerus -55.4307 -31.9108 122.567
lradius 63.2928 0 0
lwrist 19.6704 0 0
lhand 4.50578 12.9986 0
lfingers 7.12502 0 0
lthumb 29.8985 40.6042 0
rclavicle 6.46299e-14 2.39536e-14 0
rhumerus -34.8345 -27.2777 -68.8819
rradius 98.4128 0 0
rwrist -61.62 0 0
rhand -18.9446 -20.7622 0
rfingers 7.12502 0 0
rthumb 7.35864 -770.614 0
240
root 5.76855 15.6977 -25.7952 9.36148 27.3623 -7.79789
lfemur -42.8288 34.2791 -8.79905
ltibia 53.1397 0 0
lfoot -15.0332 8.28145 0
ltoes 2.41138 0 0
rfemur -14.077 -8.43299 4.94513
rtibia 32.7125 0 0
rfoot -40.8024 -13.9328 0
rtoes 56.2138 0 0
lowerback 0.909268 -2.53438 3.0893
upperback -1.44854 -3.23764 3.96494
thorax -1.93972 -1.62691 2.42889
lowerneck -10.0487 -2.53744 -0.146102
upperneck 1.66023 -3.3438 -0.284226
head 2.25477 -1.6735 -0.23203
lclavicle 4.66505e-14 1.6698e-14 0
lhumerus -55.4598 -32.0045 122.552
lradius 63.2315 0 0
lwrist 19.2555 0 0
lhand 4.44992 12.8505 0
lfingers 7.12502 0 0
lthumb 29.8452 40.4656 0
rclavicle 4.66505e-14 1.6698e-14 0
rhumerus -35.4803 -26.0145 -68.2374
rradius 93.7637 0 0
rwrist -52.254 0 0
rhand -18.941 -22.3993 0
rfingers 7.12502 0 0
rthumb 7.36216 -772.251 0
241
root 5.88637 15.7363 -25.7817 9.24208 29.214 -7.44467
lfemur -42.4147 33.2114 -9.52347
ltibia 52.3704 0 0
lfoot -15.5534 7.18545 0
ltoes 6.92876 0 0
rfemur -13.2548 -6.58337 4.73111
rtibia 33.3067 0 0
rfoot -40.8092 -16.3519 0
rtoes 56.106 0 0
lowerback 0.793695 -2.61245 2.90762
upperback -1.44956 -3.35154 3.89433
thorax -1.86643 -1.68169 2.45313
lowerneck -9.98188 -2.9424 -0.138332
upperneck 1.75934 -3.89094 -0.153152
head 2.27861 -1.94135 -0.219001
lclavicle 2.86712e-14 9.44231e-15 0
lhumerus -55.489 -32.0982 122.538
lradius 63.1702 0 0
lwrist 18.8407 0 0
lhand 4.39405 12.7023 0
lfingers 7.12502 0 0
lthumb 29.7918 40.3269 0
rclavicle 2.86712e-14 9.44231e-15 0
rhumerus -36.1262 -24.7513 -67.5928
rradius 89.1146 0 0
rwrist -42.888 0 0
rhand -18.9373 -24.0363 0
rfingers 7.12502 0 0
rthumb 7.36568 -773.888 0
242
root 6.0042 15.7749 -25.7681 9.12267 31.0658 -7.09146
lfemur -42.0006 32.1437 -10.2479
ltibia 51.601 0 0
lfoot -16.0736 6.08946 0
ltoes 11.4462 0 0
rfemur -12.4326 -4.73376 4.51708
rtibia 33.9008 0 0
rfoot -40.8161 -18.7709 0
rtoes 55.9981 0 0
lowerback 0.678123 -2.69053 2.72593
upperback -1.45058 -3.46544 3.82373
thorax -1.79315 -1.73647 2.47736
lowerneck -9.91502 -3.34737 -0.130562
upperneck 1.85845 -4.43809 -0.0220787
head 2.30246 -2.20921 -0.205972
lclavicle 1.06918e-14 2.18667e-15 0
lhumerus -55.5181 -32.1919 122.523
lradius 63.1089 0 0
lwrist 18.4258 0 0
lhand 4.33819 12.5542 0
lfingers 7.12502 0 0
lthumb 29.7385 40.1883 0
rclavicle 1.06918e-14 2.18667e-15 0
rhumerus -36.772 -23.4881 -66.9483
rradius 84.4655 0 0
rwrist -33.522 0 0
rhand -18.9337 -25.6734 0
rfingers 7.12502 0 0
rthumb 7.3692 -775.525 0
243
root 6.12203 15.8136 -25.7546 9.00326 32.9175 -6.73824
lfemur -41.5864 31.0759 -10.9723
ltibia 50.8316 0 0
lfoot -16.5937 4.99347 0
ltoes 15.9635 0 0
rfemur -11.6104 -2.88415 4.30306
rtibia 34.4949 0 0
rfoot -40.8229 -21.19 0
rtoes 55.8903 0 0
lowerback 0.562551 -2.7686 2.54424
upperback -1.4516 -3.57933 3.75313
thorax -1.71986 -1.79124 2.5016
lowerneck -9.84816 -3.75233 -0.122791
upperneck 1.95757 -4.98524 0.108995
head 2.32631 -2.47707 -0.192943
lclavicle -7.28759e-15 -5.06897e-15 0
lhumerus -55.5473 -32.2857 122.508
lradius 63.0476 0 0
lwrist 18.011 0 0
lhand 4.28232 12.406 0
lfingers 7.12502 0 0
lthumb 29.6852 40.0497 0
rclavicle -7.28759e-15 -5.06897e-15 0
rhumerus -37.4178 -22.225 -66.3038
rradius 79.8163 0 0
rwrist -24.156 0 0
rhand -18.93 -27.3105 0
rfingers 7.12502 0 0
rthumb 7.37271 -777.162 0
244
root 6.23986 15.8522 -25.741 8.88385 34.7693 -6.38503
lfemur -41.1723 30.0082 -11.6967
ltibia 50.0622 0 0
lfoot -17.1139 3.89748 0
ltoes 20.4809 0 0
rfemur -10.7882 -1.03454 4.08903
rtibia 35.089 0 0
rfoot -40.8298 -23.609 0
rtoes 55.7824 0 0
lowerback 0.446979 -2.84668 2.36255
upperback -1.45262 -3.69323 3.68253
thorax -1.64658 -1.84602 2.52583
lowerneck -9.7813 -4.1573 -0.115021
upperneck 2.05668 -5.53239 0.240068
head 2.35016 -2.74493 -0.179914
lclavicle -2.5267e-14 -1.23246e-14 0
lhumerus -55.5764 -32.3794 122.493
lradius 62.9863 0 0
lwrist 17.5961 0 0
lhand 4.22646 12.2579 0
lfingers 7.12502 0 0
lthumb 29.6319 39.9111 0
rclavicle -2.5267e-14 -1.23246e-14 0
rhumerus -38.0636 -20.9618 -65.6593
rradius 75.1672 0 0
rwrist -14.7899 0 0
rhand -18.9264 -28.9476 0
rfingers 7.12502 0 0
rthumb 7.37623 -778.799 0
245
root 6.35768 15.8908 -25.7275 8.76445 36.621 -6.03181
lfemur -40.7582 28.9405 -12.4212
ltibia 49.2929 0 0
lfoot -17.6341 2.80148 0
ltoes 24.9983 0 0
rfemur -9.96603 0.815077 3.87501
rtibia 35.6832 0 0
rfoot -40.8366 -26.0281 0
rtoes 55.6746 0 0
lowerback 0.331406 -2.92475 2.18087
upperback -1.45364 -3.80713 3.61192
thorax -1.57329 -1.9008 2.55007
lowerneck -9.71444 -4.56226 -0.107251
upperneck 2.15579 -6.07953 0.371142
head 2.374 -3.01278 -0.166885
lclavicle -4.32463e-14 -1.95803e-14 0
lhumerus -55.6056 -32.4731 122.479
lradius 62.925 0 0
lwrist 17.1813 0 0
lhand 4.17059 12.1097 0
lfingers 7.12502 0 0
lthumb 29.5785 39.7724 0
rclavicle -4.32463e-14 -1.95803e-14 0
rhumerus -38.7095 -19.6986 -65.0147
rradius 70.5181 0 0
rwrist -5.42393 0 0
rhand -18.9227 -30.5846 0
rfingers 7.12502 0 0
rthumb 7.37975 -780.436 0
246
root 6.47551 15.9294 -25.7139 8.64504 38.4728 -5.6786
lfemur -40.3441 27.8728 -13.1456
ltibia 48.5235 0 0
lfoot -18.1543 1.70549 0
ltoes 29.5157 0 0
rfemur -9.14383 2.66469 3.66098
rtibia 36.2773 0 0
rfoot -40.8435 -28.4471 0
rtoes 55.5667 0 0
lowerback 0.215834 -3.00283 1.99918
upperback -1.45466 -3.92103 3.54132
thorax -1.50001 -1.95558 2.5743
lowerneck -9.64758 -4.96723 -0.0994809
upperneck 2.2549 -6.62668 0.502215
head 2.39785 -3.28064 -0.153856
lclavicle -6.12257e-14 -2.68359e-14 0
lhumerus -55.6347 -32.5668 122.464
lradius 62.8637 0 0
lwrist 16.7664 0 0
lhand 4.11473 11.9616 0
lfingers 7.12502 0 0
lthumb 29.5252 39.6338 0
rclavicle -6.12257e-14 -2.68359e-14 0
rhumerus -39.3553 -18.4354 -64.3702
rradius 65.869 0 0
rwrist 3.94208 0 0
rhand -18.9191 -32.2217 0
rfingers 7.12502 0 0
rthumb 7.38327 -782.073 0
247
root 6.57208 15.9662 -25.7115 8.76978 39.8385 -4.97719
lfemur -39.5671 26.9299 -13.7423
ltibia 47.8208 0 0
lfoot -17.8973 0.232953 0
ltoes 32.9078 0 0
rfemur -10.3095 2.89909 3.30972
rtibia 39.8293 0 0
rfoot -32.47 -26.5286 0
rtoes 47.0007 0 0
lowerback 0.416721 -2.93557 1.56302
upperback -1.35429 -3.83971 3.43808
thorax -1.49299 -1.9118 2.71758
lowerneck -9.66654 -5.37471 -0.370609
upperneck 2.28871 -7.1383 0.529612
head 2.4304 -3.53684 -0.129402
lclavicle -5.61567e-14 -2.2491e-14 0
lhumerus -55.0043 -32.7501 121.99
lradius 62.6535 0 0
lwrist 17.2294 0 0
lhand 4.54796 11.9945 0
lfingers 7.12502 0 0
lthumb 29.9382 39.588 0
rclavicle -5.61567e-14 -2.2491e-14 0
rhumerus -39.8189 -16.7205 -64.5945
rradius 62.2369 0 0
rwrist 9.62501 0 0
rhand -18.6908 -27.8483 0
rfingers 7.12502 0 0
rthumb 7.60357 -777.691 0
248
root 6.66865 16.0029 -25.7092 8.89453 41.2041 -4.27577
lfemur -38.7901 25.987 -14.339
ltibia 47.1181 0 0
lfoot -17.6404 -1.23958 0
ltoes 36.3 0 0
rfemur -11.4751 3.1335 2.95846
rtibia 43.3814 0 0
rfoot -24.0966 -24.61 0
rtoes 38.4348 0 0
lowerback 0.617607 -2.8683 1.12687
upperback -1.25393 -3.75839 3.33484
thorax -1.48597 -1.86802 2.86086
lowerneck -9.68549 -5.78218 -0.641738
upperneck 2.32252 -7.64991 0.557009
head 2.46295 -3.79303 -0.104948
lclavicle -5.10877e-14 -1.81462e-14 0
lhumerus -54.3739 -32.9334 121.517
lradius 62.4432 0 0
lwrist 17.6923 0 0
lhand 4.98119 12.0274 0
lfingers 7.12502 0 0
lthumb 30.3511 39.5423 0
rclavicle -5.10877e-14 -1.81462e-14 0
rhumerus -40.2824 -15.0056 -64.8187
rradius 58.6049 0 0
rwrist 15.3079 0 0
rhand -18.4626 -23.475 0
rfingers 7.12502 0 0
rthumb 7.82388 -773.309 0
249
root 6.76522 16.0397 -25.7068 9.01927 42.5698 -3.57436
lfemur -38.0131 25.0441 -14.9357
ltibia 46.4154 0 0
lfoot -17.3834 -2.71212 0
ltoes 39.6921 0 0
rfemur -12.6408 3.3679 2.6072
rtibia 46.9334 0 0
rfoot -15.7231 -22.6915 0
rtoes 29.8688 0 0
lowerback 0.818494 -2.80104 0.690713
upperback -1.15356 -3.67707 3.2316
thorax -1.47895 -1.82424 3.00414
lowerneck -9.70445 -6.18966 -0.912866
upperneck 2.35633 -8.16153 0.584406
head 2.4955 -4.04923 -0.0804942
lclavicle -4.60187e-14 -1.38013e-14 0
lhumerus -53.7435 -33.1167 121.043
lradius 62.233 0 0
lwrist 18.1553 0 0
lhand 5.41442 12.0603 0
lfingers 7.12502 0 0
lthumb 30.7641 39.4965 0
rclavicle -4.60187e-14 -1.38013e-14 0
rhumerus -40.746 -13.2907 -65.043
rradius 54.9728 0 0
rwrist 20.9909 0 0
rhand -18.2343 -19.1016 0
rfingers 7.12502 0 0
rthumb 8.04418 -768.927 0
250
root 6.8618 16.0764 -25.7045 9.14401 43.9355 -2.87294
lfemur -37.236 24.1013 -15.5323
ltibia 45.7128 0 0
lfoot -17.1264 -4.18466 0
ltoes 43.0842 0 0
rfemur -13.8064 3.60231 2.25594
rtibia 50.4855 0 0
rfoot -7.34961 -20.7729 0
rtoes 21.3029 0 0
lowerback 1.01938 -2.73378 0.254557
upperback -1.0532 -3.59574 3.12836
thorax -1.47192 -1.78046 3.14741
lowerneck -9.7234 -6.59713 -1.18399
upperneck 2.39015 -8.67315 0.611803
head 2.52806 -4.30542 -0.0560402
lclavicle -4.09496e-14 -9.45646e-15 0
lhumerus -53.1131 -33.3001 120.57
lradius 62.0228 0 0
lwrist 18.6182 0 0
lhand 5.84766 12.0932 0
lfingers 7.12502 0 0
lthumb 31.177 39.4508 0
rclavicle -4.09496e-14 -9.45646e-15 0
rhumerus -41.2095 -11.5758 -65.2673
rradius 51.3408 0 0
rwrist 26.6738 0 0
rhand -18.006 -14.7282 0
rfingers 7.12502 0 0
rthumb 8.26448 -764.545 0
251
root 6.95837 16.1132 -25.7021 9.26875 45.3012 -2.17153
lfemur -36.459 23.1584 -16.129
ltibia 45.0101 0 0
lfoot -16.8694 -5.6572 0
ltoes 46.4763 0 0
rfemur -14.9721 3.83671 1.90468
rtibia 54.0375 0 0
rfoot 1.02386 -18.8544 0
rtoes 12.7369 0 0
lowerback 1.22027 -2.66652 -0.181599
upperback -0.952831 -3.51442 3.02512
thorax -1.4649 -1.73668 3.29069
lowerneck -9.74236 -7.00461 -1.45512
upperneck 2.42396 -9.18477 0.6392
head 2.56061 -4.56162 -0.0315863
lclavicle -3.58806e-14 -5.1116e-15 0
lhumerus -52.4827 -33.4834 120.096
lradius 61.8126 0 0
lwrist 19.0812 0 0
lhand 6.28089 12.1261 0
lfingers 7.12502 0 0
lthumb 31.59 39.405 0
rclavicle -3.58806e-14 -5.1116e-15 0
rhumerus -41.6731 -9.86094 -65.4916
rradius 47.7087 0 0
rwrist 32.3567 0 0
rhand -17.7777 -10.3548 0
rfingers 7.12502 0 0
rthumb 8.48478 -760.163 0
